<?xml version="1.0" encoding="UTF-8"?>
<svg width="22px" height="22px" viewBox="0 0 22 22" version="1.1" xmlns="http://www.w3.org/2000/svg" xmlns:xlink="http://www.w3.org/1999/xlink">
    <title>9DF69923-87A3-4D1B-9294-A740134BD238-color</title>
    <g id="Web-Application" stroke="none" stroke-width="1" fill="none" fill-rule="evenodd">
        <g id="2-Sign-Up" transform="translate(-1052.000000, -807.000000)">
            <g id="Group-4" transform="translate(1044.000000, 798.000000)">
                <g id="Google-/-Color" transform="translate(8.000000, 9.000000)">
                    <path d="M4.50416667,11 C4.50416667,10.3013778 4.62019792,9.6316 4.82729167,9.00337778 L1.20241667,6.23528889 C0.495947917,7.66968889 0.0979166667,9.28595556 0.0979166667,11 C0.0979166667,12.7125778 0.495458333,14.3278667 1.20094792,15.7612889 L4.82386458,12.9878222 C4.61872917,12.3625333 4.50416667,11.6952 4.50416667,11" id="Fill-1" fill="#FBBC05"></path>
                    <path d="M10.86875,4.64444444 C12.3864583,4.64444444 13.7572917,5.18222222 14.834375,6.06222222 L17.9677083,2.93333333 C16.0583333,1.27111111 13.6104167,0.244444444 10.86875,0.244444444 C6.6123125,0.244444444 2.95414583,2.67862222 1.20241667,6.23528889 L4.82729167,9.00337778 C5.66252083,6.468 8.04336458,4.64444444 10.86875,4.64444444" id="Fill-2" fill="#EA4335"></path>
                    <path d="M10.86875,17.3555556 C8.04336458,17.3555556 5.66252083,15.532 4.82729167,12.9966222 L1.20241667,15.7642222 C2.95414583,19.3213778 6.6123125,21.7555556 10.86875,21.7555556 C13.4958542,21.7555556 16.0039896,20.8227556 17.8864375,19.0749778 L14.4456458,16.4149333 C13.4748021,17.0265333 12.2523125,17.3555556 10.86875,17.3555556" id="Fill-3" fill="#34A853"></path>
                    <path d="M21.15,11 C21.15,10.3644444 21.0520833,9.68 20.9052083,9.04444444 L10.86875,9.04444444 L10.86875,13.2 L16.6458333,13.2 C16.3569792,14.6168 15.5707083,15.7060444 14.4456458,16.4149333 L17.8864375,19.0749778 C19.8638646,17.2396889 21.15,14.5058222 21.15,11" id="Fill-4" fill="#4285F4"></path>
                </g>
            </g>
        </g>
    </g>
</svg>