<?xml version="1.0" encoding="UTF-8"?>
<svg width="20px" height="20px" viewBox="0 0 20 20" version="1.1" xmlns="http://www.w3.org/2000/svg" xmlns:xlink="http://www.w3.org/1999/xlink">
    <title>Search Icon</title>
    <g id="Web-Application" stroke="none" stroke-width="1" fill="none" fill-rule="evenodd">
        <g id="1-Home" transform="translate(-1159.000000, -344.000000)" fill="#0042FF" fill-rule="nonzero" stroke="#0042FF" stroke-width="0.5">
            <path d="M1166.90212,345 C1171.05871,345 1174.42665,348.272872 1174.42665,352.312141 C1174.42665,354.140176 1173.73571,355.810016 1172.59618,357.093156 L1172.59618,357.093156 L1173.07366,357.093156 C1173.18943,357.093156 1173.29796,357.135348 1173.38116,357.216197 L1173.38116,357.216197 L1177.77289,361.48397 C1177.94292,361.649169 1177.94292,361.916364 1177.77289,362.081597 L1177.77289,362.081597 L1176.95534,362.876075 C1176.7853,363.041308 1176.51035,363.041308 1176.34035,362.876075 L1176.34035,362.876075 L1171.94862,358.608302 C1171.86902,358.527454 1171.822,358.42199 1171.822,358.309489 L1171.822,358.309489 L1171.822,357.845477 C1170.50159,358.952844 1168.78325,359.624282 1166.90212,359.624282 C1162.74553,359.624282 1159.37759,356.351409 1159.37759,352.312141 C1159.37759,348.272872 1162.74553,345 1166.90212,345 Z M1166.90212,346.687417 C1163.70418,346.687417 1161.11402,349.204467 1161.11402,352.312141 C1161.11402,355.419814 1163.70418,357.936865 1166.90212,357.936865 C1170.10006,357.936865 1172.69022,355.419814 1172.69022,352.312141 C1172.69022,349.204467 1170.10006,346.687417 1166.90212,346.687417 Z" id="Search-Icon"></path>
        </g>
    </g>
</svg>